<?xml version="1.0" standalone="no"?>
<!DOCTYPE svg PUBLIC "-//W3C//DTD SVG 20010904//EN"
 "http://www.w3.org/TR/2001/REC-SVG-20010904/DTD/svg10.dtd">
<svg version="1.0" xmlns="http://www.w3.org/2000/svg"
 width="500.000000pt" height="500.000000pt" viewBox="0 0 500.000000 500.000000"
 preserveAspectRatio="xMidYMid meet">

<g transform="translate(0.000000,500.000000) scale(0.100000,-0.100000)"
fill="#000000" stroke="none">
<path d="M2077 3154 c-4 -4 -7 -63 -7 -131 0 -67 -3 -123 -7 -123 -5 1 -19 7
-33 15 -67 38 -176 3 -217 -70 l-23 -40 0 58 0 57 -60 0 c-45 0 -60 -4 -60
-14 0 -11 -8 -10 -37 5 -70 36 -162 17 -206 -43 -11 -15 -23 -28 -26 -28 -3 0
-14 14 -23 30 -36 64 -137 76 -202 26 -30 -23 -35 -24 -47 -10 -38 46 -137 57
-178 20 -22 -20 -31 -20 -31 -1 0 12 -13 15 -60 15 l-60 0 0 -175 0 -175 60 0
60 0 0 108 c0 123 11 152 60 152 49 0 60 -29 60 -152 l0 -108 60 0 60 0 0 114
c0 127 8 146 60 146 49 0 60 -29 60 -152 l0 -108 60 0 60 0 0 41 0 41 25 -30
c52 -61 139 -79 208 -42 31 17 37 17 37 5 0 -12 13 -15 59 -15 l60 0 3 53 3
52 22 -37 c42 -71 140 -98 218 -58 47 24 45 24 45 5 0 -12 13 -15 60 -15 l60
0 0 45 0 46 32 -37 c60 -68 146 -84 212 -39 34 23 36 23 36 5 0 -18 7 -20 60
-20 l60 0 0 175 0 175 -60 0 c-47 0 -60 -3 -60 -15 0 -12 -6 -12 -37 5 -71 38
-154 21 -210 -44 l-33 -36 -2 162 -3 163 -55 3 c-31 2 -59 0 -63 -4z m-424
-356 c9 -11 17 -35 17 -53 0 -42 -26 -73 -67 -81 -27 -5 -37 -1 -63 24 -33 34
-38 66 -14 100 32 46 93 50 127 10z m402 2 c26 -27 25 -84 -3 -112 -50 -50
-134 -15 -134 56 0 77 81 110 137 56z m396 1 c44 -44 33 -108 -21 -131 -55
-23 -110 14 -110 73 0 80 75 113 131 58z"/>
<path d="M2920 3127 c-56 -28 -48 -110 14 -130 68 -22 117 77 60 122 -31 24
-40 25 -74 8z"/>
<path d="M2778 2906 c-36 -24 -38 -24 -38 -6 0 18 -7 20 -60 20 l-60 0 0 -175
0 -175 60 0 60 0 0 103 c0 134 10 151 86 145 33 -3 55 0 58 6 2 6 5 -49 5
-121 l1 -133 60 0 60 0 0 175 0 175 -47 0 c-27 0 -70 3 -98 6 -43 5 -55 2 -87
-20z"/>
<path d="M3192 2910 c-39 -24 -42 -24 -42 -5 0 12 -13 15 -60 15 l-60 0 0
-175 0 -175 60 0 60 0 0 103 c0 120 11 151 56 155 55 5 64 -14 64 -144 l0
-114 60 0 60 0 0 108 c0 122 12 152 59 152 51 0 61 -24 61 -148 l0 -112 60 0
60 0 0 48 0 47 20 -32 c40 -67 140 -91 215 -53 47 24 45 24 45 5 0 -12 13 -15
60 -15 l60 0 0 175 0 175 -64 0 c-39 0 -66 -4 -68 -11 -3 -8 -14 -7 -35 5 -68
35 -174 7 -212 -55 l-19 -31 -13 28 c-8 16 -30 39 -49 52 -48 32 -118 27 -160
-13 l-28 -27 -21 21 c-45 45 -115 53 -169 21z m693 -110 c26 -27 25 -84 -3
-112 -50 -50 -134 -15 -134 56 0 77 81 110 137 56z"/>
<path d="M4090 2707 c-38 -19 -55 -61 -40 -98 23 -54 84 -66 125 -24 35 35 33
76 -6 109 -35 29 -44 31 -79 13z"/>
<path d="M2330 726 c0 -7 10 -21 23 -30 l22 -17 -22 5 c-13 2 -23 0 -23 -5 0
-13 38 -11 46 2 4 7 -3 20 -16 29 -22 17 -23 18 -4 23 16 4 16 5 -3 6 -14 1
-23 -5 -23 -13z"/>
<path d="M2400 705 c0 -19 5 -35 10 -35 6 0 10 16 10 35 0 19 -4 35 -10 35 -5
0 -10 -16 -10 -35z"/>
<path d="M2440 704 c0 -21 4 -33 10 -29 6 3 10 17 10 31 0 37 28 30 33 -8 4
-32 4 -32 5 5 2 35 0 37 -28 37 -28 0 -30 -3 -30 -36z"/>
<path d="M2534 726 c-14 -37 22 -74 47 -49 6 6 1 9 -13 9 -33 -1 -31 36 2 45
l25 7 -28 1 c-16 1 -30 -5 -33 -13z"/>
<path d="M2614 726 c-11 -29 1 -51 29 -54 15 -2 27 1 27 6 0 6 -8 8 -19 5 -10
-3 -22 0 -25 6 -5 7 3 11 19 11 20 0 26 4 23 18 -4 22 -46 29 -54 8z m46 -6
c0 -5 -7 -10 -15 -10 -8 0 -15 5 -15 10 0 6 7 10 15 10 8 0 15 -4 15 -10z"/>
<path d="M2347 633 c-13 -13 -7 -21 13 -16 13 4 20 0 20 -9 0 -8 -9 -23 -20
-33 -28 -26 -25 -35 13 -34 23 1 26 3 9 6 l-22 4 20 26 c15 19 17 30 9 44 -10
19 -30 25 -42 12z"/>
<path d="M2431 626 c-19 -23 -10 -80 13 -85 38 -7 60 53 30 83 -19 20 -28 20
-43 2z m37 -38 c-3 -36 -30 -46 -36 -15 -5 26 5 47 23 47 12 0 15 -8 13 -32z"/>
<path d="M2520 625 c-11 -13 -10 -14 3 -9 33 12 38 -7 12 -42 l-26 -34 33 1
c18 1 25 3 16 6 -22 6 -23 17 -3 33 20 16 19 46 -1 54 -21 8 -20 8 -34 -9z"/>
<path d="M2617 607 l-28 -37 25 0 c15 0 26 -7 28 -17 7 -33 14 18 8 56 l-5 35
-28 -37z m19 -24 c-10 -10 -19 5 -10 18 6 11 8 11 12 0 2 -7 1 -15 -2 -18z"/>
</g>
</svg>
